# xmcd
#
# Track frame offsets: 
#        150
#        29795
#        80030
#        102235
#        125225
#        159810
#        171877
#        193055
#        237950
#        268295
#        291437
#
# Disc length: 4132 seconds
#
# Revision: 1
# Processed by: cddbd v1.5.1PL2 Copyright (c) Steve Scherf et al.
# Submitted via: ExactAudioCopy v0.95b3
#
DISCID=a710220b
DTITLE=Rostropovich, Mstislav - Shostakovich - Cello Concerto No.1, Tr
DTITLE=io No. 2, and other
DYEAR=1900
DGENRE=Classical
TTITLE0=Shostakovich: Cello Concerto No.1, Op.107,  I. Allegretto 
TTITLE1=Shostakovich: Cello Concerto No.1, Op.107,  II.Moderato 
TTITLE2=Shostakovich: Cello Concerto No.1, Op.107,  III. Cadenza 
TTITLE3=Shostakovich: Cello Concerto No.1, Op.107,  IV. Allegro con mo
TTITLE3=to 
TTITLE4=Shostakovich: Piano Trio No.2, Op.67,  I. Andante 
TTITLE5=Shostakovich: Piano Trio No.2, Op.67,  II. Allegro non troppo 
TTITLE6=Shostakovich: Piano Trio No.2, Op.67,  III. Largo 
TTITLE7=Shostakovich: Piano Trio No.2, Op.67,  IV. Allegretto 
TTITLE8=Haydn: Piano Trio in D major , Hob XV:16, I. Allegro 
TTITLE9=Haydn: Piano Trio in D major , Hob XV:16, II. Andantino piu to
TTITLE9=sto Allegretto 
TTITLE10=Haydn: Piano Trio in D major , Hob XV:16, III. Vivace assai 
EXTD=
EXTT0=
EXTT1=
EXTT2=
EXTT3=
EXTT4=
EXTT5=
EXTT6=
EXTT7=
EXTT8=
EXTT9=
EXTT10=
PLAYORDER=
